<?xml version="1.0" standalone="no"?>
<!DOCTYPE svg PUBLIC "-//W3C//DTD SVG 20010904//EN"
 "http://www.w3.org/TR/2001/REC-SVG-20010904/DTD/svg10.dtd">
<svg version="1.0" xmlns="http://www.w3.org/2000/svg"
 width="512.000000pt" height="157.000000pt" viewBox="0 0 512.000000 157.000000"
 preserveAspectRatio="xMidYMid meet">

<g transform="translate(0.000000,157.000000) scale(0.100000,-0.100000)"
fill="#000000" stroke="none">
<path d="M2753 1535 c-49 -21 -75 -69 -70 -128 6 -65 20 -78 202 -181 176
-101 186 -96 -141 -66 -415 39 -657 70 -676 87 -13 12 -18 31 -18 71 0 119
-89 212 -203 212 -16 0 -210 -47 -431 -104 -221 -57 -437 -111 -481 -119 -145
-28 -331 -40 -506 -33 -142 6 -173 4 -208 -10 -72 -28 -121 -105 -121 -188 0
-20 -11 -39 -34 -62 -19 -18 -42 -53 -51 -78 -17 -43 -17 -53 4 -226 18 -156
25 -191 51 -245 52 -108 192 -220 303 -240 27 -5 54 -23 92 -61 176 -171 456
-173 636 -4 l53 50 1216 0 1215 0 35 -36 c111 -114 265 -163 416 -131 92 20
157 53 226 116 l55 50 184 10 c253 14 456 56 529 109 33 25 68 76 80 121 13
46 13 196 0 240 -24 85 -94 143 -275 231 -202 98 -503 187 -940 275 -221 45
-322 78 -585 190 -246 105 -322 132 -418 151 -89 17 -98 17 -139 -1z m-1824
-770 c220 -120 210 -436 -17 -546 -71 -34 -188 -33 -258 3 -190 99 -231 342
-81 491 62 63 131 88 227 84 61 -3 86 -9 129 -32z m3149 6 c68 -35 117 -85
147 -152 24 -55 27 -71 23 -138 -6 -96 -41 -167 -111 -223 -188 -148 -460 -33
-492 209 -17 127 72 269 202 318 56 22 176 14 231 -14z"/>
</g>
</svg>
